<?xml version="1.0" encoding="UTF-8"?>
<!DOCTYPE svg PUBLIC "-//W3C//DTD SVG 1.1//EN" "http://www.w3.org/Graphics/SVG/1.1/DTD/svg11.dtd">
<!-- Creator: CorelDRAW X8 -->
<svg xmlns="http://www.w3.org/2000/svg" xml:space="preserve" width="8.5in" height="11in" version="1.1" style="shape-rendering:geometricPrecision; text-rendering:geometricPrecision; image-rendering:optimizeQuality; fill-rule:evenodd; clip-rule:evenodd"
viewBox="0 0 8500 11000"
 xmlns:xlink="http://www.w3.org/1999/xlink">
 <defs>
  <style type="text/css">
   <![CDATA[
    .str1 {stroke:#BDBFC1;stroke-width:3}
    .str0 {stroke:#373435;stroke-width:3}
    .fil1 {fill:#FEFEFE}
    .fil0 {fill:white}
   ]]>
  </style>
 </defs>
 <g id="Layer_x0020_1">
  <metadata id="CorelCorpID_0Corel-Layer"/>
  <g id="_3053150476336">
   <path class="fil0 str0" d="M4716 4755c-25,-6 -47,-15 -71,-27 -1,-1 -3,-2 -5,-3 -26,-14 -47,-29 -64,-54 -7,2 -14,3 -21,3 -19,0 -38,-5 -54,-15 -16,-9 -28,-23 -36,-39 -9,-14 -14,-31 -18,-48 -3,-17 -4,-35 -2,-53 2,-17 8,-34 16,-49 9,-18 22,-31 41,-39 17,-8 38,-10 57,-6 1,0 2,0 3,0 1,-2 3,-4 4,-7 10,-16 21,-29 36,-41 2,-3 5,-5 9,-8 22,-16 48,-30 74,-38 16,-5 33,-9 50,-11 1,0 3,-1 5,-1 11,-3 22,-6 33,-9 11,-3 22,-7 32,-11 4,-2 9,-4 12,-7 3,-3 6,-6 8,-9 3,-4 5,-8 8,-12 19,-26 55,-32 77,-6 9,11 10,20 11,33 0,1 0,1 0,2 7,4 13,9 17,16 4,5 6,10 7,15 14,5 26,10 39,17 14,7 28,16 40,26 8,8 16,16 23,25 4,5 8,11 11,16 13,-3 28,-4 41,-1 23,4 42,17 54,37 10,16 14,34 15,52 1,18 -1,36 -5,54 -5,17 -13,36 -23,51 -12,17 -28,29 -49,34 -12,3 -25,3 -38,2 -8,16 -19,31 -34,45 -2,3 -5,6 -8,8 -14,13 -28,25 -44,35 -11,20 -29,37 -49,49 -19,12 -39,19 -61,21 -19,3 -40,2 -59,-1 -17,-3 -33,-8 -48,-17 -13,-7 -24,-17 -34,-29z"/>
  </g>
  <path class="fil1 str1" d="M5057 4464c10,-4 24,-6 34,-5 11,2 18,8 22,16 5,8 8,18 9,31 1,12 -1,26 -4,39 -4,14 -10,27 -16,36 -6,9 -12,14 -21,16 -9,2 -21,2 -31,0 -10,-2 -18,-6 -22,-8 -2,-2 -3,-3 -3,-4 -1,5 -2,10 -3,14 -8,26 -20,42 -35,57 -3,3 -5,5 -8,7 -13,13 -30,26 -48,37 -1,3 -2,6 -4,9 -7,13 -20,24 -33,32 -13,9 -27,13 -43,15 -15,2 -32,1 -45,-1 -14,-2 -24,-5 -33,-11 -9,-5 -16,-12 -23,-20 -2,-4 -4,-7 -6,-10 -5,-1 -9,-2 -14,-3 -25,-6 -45,-15 -63,-24 -2,-1 -3,-2 -5,-3 -17,-9 -34,-20 -48,-40 -6,-9 -12,-20 -17,-32 -3,3 -7,6 -14,8 -8,4 -19,7 -29,7 -11,1 -20,-2 -29,-7 -8,-5 -15,-13 -20,-22 -5,-10 -10,-22 -12,-35 -3,-13 -4,-26 -2,-38 2,-13 6,-25 11,-33 4,-9 10,-15 18,-19 8,-3 20,-5 30,-3 10,2 19,8 27,13 2,3 5,5 7,7 5,-17 13,-34 21,-47 8,-12 15,-22 26,-31 3,-2 5,-4 7,-5 15,-12 36,-24 61,-32 14,-4 30,-7 46,-10 1,0 2,0 5,-1 8,-2 23,-5 36,-9 14,-4 27,-9 38,-14 10,-4 17,-9 24,-14 6,-6 11,-12 15,-18 4,-5 6,-9 8,-11 2,-3 3,-3 3,-3 0,1 0,2 1,6 0,5 1,11 1,16 0,5 0,9 -1,13 0,3 -1,6 -3,10 -2,5 -6,11 -7,15 -2,3 -2,4 -1,4 1,0 4,-1 6,-1 3,-1 6,-2 10,-4 4,-2 8,-5 11,-7 3,-3 5,-5 6,-5 1,-1 2,-1 3,0 0,1 1,2 1,6 0,3 1,9 1,12 0,3 0,5 -2,8 25,4 45,12 62,21 12,6 22,13 31,20 7,6 12,12 17,18 11,15 19,32 22,60 0,-2 0,-4 3,-7 4,-5 11,-11 22,-16z"/>
 </g>
</svg>
